<?xml version="1.0" encoding="UTF-8" standalone="no"?>
<svg width="268px" height="268px" viewBox="0 0 268 268" version="1.1" xmlns="http://www.w3.org/2000/svg" xmlns:xlink="http://www.w3.org/1999/xlink">
    <!-- Generator: Sketch 43.2 (39069) - http://www.bohemiancoding.com/sketch -->
    <title>Slice</title>
    <desc>Created with Sketch.</desc>
    <defs></defs>
    <g id="Page-1" stroke="none" stroke-width="1" fill="none" fill-rule="evenodd">
        <g id="Artboard" fill-rule="nonzero" fill="#0099FF">
            <path d="M148,137.780401 L148,47.4822792 C148,40.5885068 142.403559,35 135.5,35 C128.596441,35 123,40.5885068 123,47.4822792 L123,159.604198 C123,186.329123 101.084692,208.035442 74,208.035442 C46.9153082,208.035442 25,186.329123 25,159.604198 L25,133.611142 C25,126.71737 19.4035594,121.128863 12.5,121.128863 C5.59644063,121.128863 0,126.71737 0,133.611142 L0,159.604198 C0,200.162493 33.1536676,233 74,233 C103.918071,233 129.709111,215.383029 141.368118,190.0188 C141.539206,189.749656 141.713482,189.440244 141.892015,189.087249 C148.484491,176.052623 150.810029,171.116297 153.526617,167.565819 C163.65956,154.322443 179.138081,145.842639 194,145.842639 C221.084692,145.842639 243,167.548958 243,194.273883 L243,220.266939 C243,227.160711 248.596441,232.749218 255.5,232.749218 C262.403559,232.749218 268,227.160711 268,220.266939 L268,194.273883 C268,153.715588 234.846332,120.878081 194,120.878081 C177.519199,120.878081 161.274794,127.196432 148,137.780401 Z" id="Combined-Shape"></path>
        </g>
    </g>
</svg>